<svg xmlns="http://www.w3.org/2000/svg" xmlns:xlink="http://www.w3.org/1999/xlink" width="500" zoomAndPan="magnify" viewBox="0 0 375 374.999991" height="500" preserveAspectRatio="xMidYMid meet" version="1.0"><defs><clipPath id="e299cf713e"><path d="M 26.285156 22.648438 L 364.644531 22.648438 L 364.644531 361.007812 L 26.285156 361.007812 Z M 26.285156 22.648438 " clip-rule="nonzero"/></clipPath><clipPath id="830f5e67d3"><path d="M 195.464844 22.648438 C 102.03125 22.648438 26.285156 98.394531 26.285156 191.828125 C 26.285156 285.265625 102.03125 361.007812 195.464844 361.007812 C 288.902344 361.007812 364.644531 285.265625 364.644531 191.828125 C 364.644531 98.394531 288.902344 22.648438 195.464844 22.648438 Z M 195.464844 22.648438 " clip-rule="nonzero"/></clipPath><clipPath id="1c631c089e"><path d="M 58 22 L 375 22 L 375 351 L 58 351 Z M 58 22 " clip-rule="nonzero"/></clipPath><clipPath id="10d81206d2"><path d="M -21.136719 51.945312 L 351.011719 0.0507812 L 395.757812 320.945312 L 23.609375 372.839844 Z M -21.136719 51.945312 " clip-rule="nonzero"/></clipPath><clipPath id="104161f207"><path d="M -21.136719 51.945312 L 351.011719 0.0507812 L 395.757812 320.945312 L 23.609375 372.839844 Z M -21.136719 51.945312 " clip-rule="nonzero"/></clipPath><clipPath id="c10c6495f3"><path d="M 8 31 L 374 31 L 374 345 L 8 345 Z M 8 31 " clip-rule="nonzero"/></clipPath><clipPath id="a1c0b64303"><path d="M -21.136719 51.945312 L 351.011719 0.0507812 L 395.757812 320.945312 L 23.609375 372.839844 Z M -21.136719 51.945312 " clip-rule="nonzero"/></clipPath><clipPath id="e453a41d4e"><path d="M -21.136719 51.945312 L 351.011719 0.0507812 L 395.757812 320.945312 L 23.609375 372.839844 Z M -21.136719 51.945312 " clip-rule="nonzero"/></clipPath></defs><g clip-path="url(#e299cf713e)"><g clip-path="url(#830f5e67d3)"><path fill="#f1ebe5" d="M 26.285156 22.648438 L 364.644531 22.648438 L 364.644531 361.007812 L 26.285156 361.007812 Z M 26.285156 22.648438 " fill-opacity="1" fill-rule="nonzero"/></g></g><g clip-path="url(#1c631c089e)"><g clip-path="url(#10d81206d2)"><g clip-path="url(#104161f207)"><path fill="#ffbd59" d="M 64.289062 183.203125 C 52.53125 188.832031 61.886719 154.277344 62.921875 149.21875 C 65.40625 140.109375 68.839844 131.347656 72.632812 122.839844 C 80.03125 105.3125 89.464844 89.019531 101.539062 74.980469 C 111.980469 63.820312 123.148438 52.988281 135.898438 45.046875 C 143.910156 41 151.042969 35.128906 159.296875 31.652344 C 174.269531 25.550781 190.25 22.535156 206.347656 22.546875 C 218.890625 22.667969 231.4375 24.191406 243.992188 24.128906 C 250.695312 24.265625 257.480469 24.65625 263.996094 26.71875 C 281.660156 31.375 297.261719 43.253906 308.546875 58.867188 C 314.667969 65.949219 319.882812 73.785156 323.820312 82.527344 C 326.128906 86.71875 328.621094 90.789062 330.296875 95.34375 C 337.113281 107.621094 341.480469 118.023438 338.984375 132.527344 C 335.890625 152.636719 315.726562 160.996094 300.703125 168.527344 C 285.371094 174.867188 269.636719 180.046875 253.375 183.011719 C 240.636719 185.214844 227.703125 185.972656 214.890625 187.636719 C 194.148438 190.304688 174.59375 199.015625 153.71875 201.070312 C 138.230469 203.484375 122.574219 205.09375 106.945312 201.636719 C 97.65625 199.742188 87.832031 199.394531 79.347656 194.242188 C 74.109375 190.984375 67.769531 189.027344 64.289062 183.203125 Z M 377.894531 254.640625 C 375.925781 246.433594 369.546875 239.703125 361.808594 238.589844 C 352.34375 236.808594 343.347656 241.679688 334.15625 243.769531 C 305.082031 249.878906 275.53125 254.105469 247.515625 264.660156 C 221.964844 272.285156 196.867188 282.175781 170.515625 286.410156 C 154.984375 289.011719 139.097656 287.410156 123.503906 289.347656 C 114.535156 290.007812 106.082031 293.199219 97.332031 294.992188 C 94.613281 295.667969 91.878906 295.929688 89.09375 295.460938 C 87.265625 295.125 85.40625 294.859375 84.03125 296.457031 C 80.285156 300.484375 79.035156 310.679688 84.734375 313.554688 C 89.519531 319.074219 94.871094 324.316406 99.960938 329.628906 C 104.351562 333.789062 109.640625 336.527344 114.652344 339.609375 C 131.203125 348.050781 150.011719 350.269531 167.914062 350.386719 C 193.707031 349.152344 218.746094 342.179688 244.121094 337.910156 C 265.777344 334.132812 285.613281 323.757812 306.109375 316.027344 C 318.222656 311.304688 331.121094 309.449219 343.082031 304.222656 C 352.9375 299.175781 363.234375 293.277344 370 283.730469 C 375.660156 275.679688 381.097656 265.265625 377.894531 254.640625 Z M 377.894531 254.640625 " fill-opacity="1" fill-rule="nonzero"/></g></g></g><g clip-path="url(#c10c6495f3)"><g clip-path="url(#a1c0b64303)"><g clip-path="url(#e453a41d4e)"><path fill="#780000" d="M 372.648438 167.425781 C 369.589844 161.765625 363.496094 159.40625 358.703125 155.554688 C 365.140625 151.886719 367.824219 140.449219 359.71875 137.148438 C 354.863281 135.488281 349.613281 135.585938 344.546875 135.214844 C 342.585938 135.191406 340.617188 134.957031 338.652344 134.757812 C 341.726562 115.3125 323.148438 94.199219 301.394531 69.390625 C 282.851562 49.550781 266.992188 37.976562 239.695312 33.164062 C 227.074219 30.863281 214.257812 32.699219 201.535156 32.421875 C 156.351562 29.914062 126.542969 40.265625 91.253906 68.113281 C 83.96875 72.703125 77.875 78.722656 71.570312 84.523438 C 63.917969 90.652344 58.25 98.613281 53.570312 107.148438 C 49.351562 114.511719 44.453125 121.539062 40.910156 129.265625 C 34.523438 144.429688 31.023438 161.558594 33.628906 177.949219 C 34.648438 184.9375 39.121094 190.75 45.523438 193.558594 C 45.34375 194.195312 45.195312 194.875 45.085938 195.601562 C 41.238281 194.332031 36.085938 194.636719 33.183594 195.472656 C 25.449219 197.894531 16.609375 201.496094 12.964844 209.265625 C 8.84375 219.144531 13.898438 223.996094 23.414062 225.886719 C 18.269531 230.3125 13.550781 235.460938 10.847656 241.769531 C 6.46875 249.953125 9.046875 260.539062 19.878906 259.488281 C 28.949219 258.347656 37.160156 254.261719 45.617188 250.972656 C 43.808594 256.808594 42.539062 262.820312 40.835938 268.683594 C 39.371094 274.878906 34.332031 285.085938 41.742188 289.105469 C 43.96875 289.738281 46.09375 288.816406 48.191406 288.164062 C 51.316406 287.3125 54.515625 286.800781 57.691406 286.171875 C 46.234375 306.832031 61.90625 328.257812 81.910156 336.617188 C 93.929688 341.605469 106.65625 343.75 119.621094 343.902344 C 139.894531 344.519531 159.902344 343.582031 180.085938 341.1875 C 203.746094 338.648438 226.835938 332.847656 249.636719 326.148438 C 266.730469 321.78125 284.269531 319.457031 301.152344 314.203125 C 318.765625 308.953125 340.105469 296.035156 351.703125 281.734375 C 365.230469 265.9375 366.753906 242.292969 350.191406 228.105469 C 348.019531 226.71875 344.136719 223.6875 340.359375 221.902344 C 340.296875 221.234375 340.203125 220.546875 340.082031 219.839844 C 351.804688 216.066406 356.558594 204.398438 352.144531 192.882812 C 357.835938 191.871094 363.585938 189.75 368 185.921875 C 372.359375 181.335938 375.578125 173.480469 372.648438 167.425781 Z M 182.484375 201.539062 C 182.699219 201.507812 182.910156 201.476562 183.125 201.445312 C 182.96875 201.652344 182.820312 201.851562 182.675781 202.042969 C 182.613281 201.871094 182.550781 201.707031 182.484375 201.539062 Z M 132.804688 208.21875 C 132.632812 206.59375 132.367188 205.289062 132.03125 204.257812 C 133.316406 204.242188 134.597656 204.226562 135.882812 204.210938 C 134.722656 205.851562 133.675781 207.335938 132.804688 208.21875 Z M 106.535156 210.605469 C 105.058594 209.160156 104.867188 206.921875 104.199219 204.953125 C 106.355469 204.894531 108.507812 204.820312 110.65625 204.746094 C 111.179688 204.722656 111.703125 204.707031 112.222656 204.6875 C 110.394531 206.492188 108.496094 208.792969 106.535156 210.605469 Z M 91.015625 207.777344 C 91 206.78125 90.9375 205.863281 90.839844 205.019531 C 91.566406 205.039062 92.292969 205.054688 93.015625 205.066406 C 92.234375 206.015625 91.550781 206.976562 91.015625 207.777344 Z M 56.21875 200.011719 C 56.085938 199.519531 55.960938 199.019531 55.847656 198.519531 C 56.089844 198.613281 56.332031 198.707031 56.578125 198.796875 C 56.441406 199.195312 56.324219 199.601562 56.21875 200.011719 Z M 115.058594 214.171875 C 115.375 215.046875 115.730469 215.828125 116.113281 216.515625 C 115.25 216.519531 114.386719 216.523438 113.523438 216.527344 C 114.066406 215.757812 114.582031 214.96875 115.058594 214.171875 Z M 120.878906 204.433594 C 122.230469 204.40625 123.582031 204.382812 124.9375 204.359375 C 124.136719 205.496094 123.367188 206.882812 122.691406 208.4375 C 122.097656 206.753906 121.492188 205.4375 120.878906 204.433594 Z M 126.019531 216.101562 C 126.042969 216.203125 126.074219 216.289062 126.101562 216.386719 C 126 216.390625 125.898438 216.390625 125.796875 216.390625 C 125.871094 216.296875 125.945312 216.203125 126.019531 216.101562 Z M 139.605469 213.792969 C 139.605469 214.632812 139.695312 215.449219 139.851562 216.21875 C 138.996094 216.222656 138.144531 216.230469 137.289062 216.234375 C 138.15625 215.386719 138.945312 214.53125 139.605469 213.792969 Z M 207.878906 196.457031 C 208.816406 196.226562 209.753906 195.996094 210.6875 195.761719 C 210.527344 196.257812 210.40625 196.738281 210.335938 197.183594 C 210.070312 198.824219 210.054688 201.121094 210.324219 203.53125 C 209.542969 203.6875 208.765625 203.851562 207.984375 204.015625 C 208.8125 201.699219 208.742188 198.707031 207.878906 196.457031 Z M 251.988281 190.140625 C 251.355469 188.425781 250.703125 186.992188 250.035156 185.808594 C 251.882812 185.394531 253.734375 184.992188 255.589844 184.589844 C 254.160156 186.242188 253.234375 188.347656 251.988281 190.140625 Z M 234.675781 192.015625 C 234.332031 191.222656 233.984375 190.488281 233.628906 189.804688 C 234.460938 189.589844 235.289062 189.378906 236.121094 189.171875 C 235.628906 190.066406 235.144531 191.015625 234.675781 192.015625 Z M 242.21875 197.613281 C 242.304688 197.839844 242.394531 198.054688 242.484375 198.269531 C 242.289062 198.296875 242.09375 198.324219 241.898438 198.355469 C 242.007812 198.109375 242.113281 197.863281 242.21875 197.613281 Z M 262.300781 190.691406 C 263.300781 188.613281 263.085938 185.03125 261.625 183.285156 C 264.257812 182.710938 266.894531 182.125 269.515625 181.507812 C 269.804688 182.09375 270.175781 182.640625 270.636719 183.136719 C 271.957031 185.773438 272.90625 188.5625 273.914062 191.324219 C 271.09375 192.3125 268.238281 193.199219 265.324219 193.90625 C 263.558594 194.375 261.78125 194.800781 260 195.199219 C 260.902344 193.671875 261.6875 192.121094 262.300781 190.691406 Z M 293.886719 180.449219 C 292.976562 178.65625 291.929688 176.929688 291.140625 175.082031 C 293.890625 174.019531 296.601562 172.847656 299.25 171.535156 C 299.664062 171.347656 300.066406 171.160156 300.472656 170.96875 C 300.769531 173.515625 301.753906 176.335938 303.71875 179.28125 C 300.753906 180.582031 297.773438 181.847656 294.773438 183.082031 C 294.683594 182.089844 294.402344 181.179688 293.886719 180.449219 Z M 57.402344 120.570312 C 68.855469 100.140625 84.730469 81.824219 105.199219 70.105469 C 117.707031 63.460938 131.335938 59.695312 145.054688 56.511719 C 157.804688 53.171875 170.441406 49.265625 183.550781 47.542969 C 192.882812 45.964844 202.328125 47.375 211.601562 48.667969 C 227.792969 50.21875 243.574219 54.117188 259.449219 57.441406 C 272.835938 60.027344 285.035156 66.792969 295.5625 75.296875 C 306.894531 86.050781 315.246094 99.59375 322.355469 113.390625 C 332.425781 130.203125 330.941406 133.597656 315.277344 144.5 C 299.410156 156.371094 281.652344 165.214844 263.246094 172.433594 C 236.40625 183.660156 206.394531 179.914062 178.085938 183.449219 C 154.277344 186.382812 130.542969 191.875 106.441406 188.765625 C 85.269531 187.71875 63.445312 186.390625 43.832031 177.851562 C 39.046875 158.011719 46.699219 137.246094 57.402344 120.570312 Z M 55.316406 250.660156 C 55.617188 249.691406 55.925781 248.660156 56.128906 247.613281 C 56.191406 247.597656 56.257812 247.582031 56.320312 247.566406 C 76.476562 241.558594 76.234375 268.214844 99.015625 258.589844 C 104.105469 256.824219 107.683594 252.648438 112.113281 249.820312 C 122.429688 245.050781 131.132812 250.742188 141.113281 252.8125 C 146.398438 253.746094 151.800781 252.878906 157.019531 251.792969 C 156.542969 251.949219 156.070312 252.109375 155.59375 252.261719 C 151.832031 253.546875 148.011719 254.550781 144.15625 255.410156 C 141.292969 254.097656 138.363281 255.21875 135.597656 257.128906 C 129.527344 258.25 123.433594 259.257812 117.414062 260.652344 C 111.894531 261.835938 106.355469 262.949219 100.8125 264.015625 C 99.390625 263.773438 98.082031 264.078125 96.929688 264.753906 C 81.128906 267.738281 65.261719 270.410156 49.476562 273.390625 C 51.730469 265.894531 53.335938 258.226562 55.316406 250.660156 Z M 324.566406 226.144531 C 322.910156 227.042969 321.238281 227.914062 319.558594 228.761719 C 319.566406 228.746094 319.570312 228.726562 319.574219 228.707031 C 320.410156 226.546875 319.777344 224.21875 318.832031 222.152344 C 320.523438 222.21875 322.214844 222.261719 323.902344 222.253906 C 323.90625 223.664062 324.121094 225.003906 324.566406 226.144531 Z M 187.691406 258.292969 C 188.273438 258.128906 188.855469 257.964844 189.433594 257.796875 C 189.039062 258.523438 188.691406 259.222656 188.402344 259.847656 C 188.167969 259.289062 187.929688 258.773438 187.691406 258.292969 Z M 201.527344 253.6875 C 201.582031 253.667969 201.636719 253.648438 201.691406 253.625 C 201.660156 253.691406 201.628906 253.757812 201.597656 253.820312 C 201.574219 253.777344 201.550781 253.734375 201.527344 253.6875 Z M 221.148438 247.960938 C 220.917969 247.457031 220.679688 246.984375 220.441406 246.542969 C 221.097656 246.308594 221.757812 246.078125 222.414062 245.847656 C 221.925781 246.589844 221.5 247.308594 221.148438 247.960938 Z M 236.992188 241.480469 C 237.152344 241.445312 237.3125 241.40625 237.472656 241.367188 C 237.386719 241.578125 237.308594 241.78125 237.238281 241.972656 C 237.15625 241.800781 237.074219 241.640625 236.992188 241.480469 Z M 171.996094 261.945312 C 172.710938 261.808594 173.425781 261.664062 174.140625 261.519531 C 173.84375 262.113281 173.5625 262.71875 173.296875 263.328125 C 172.8125 262.917969 172.390625 262.445312 171.996094 261.945312 Z M 94.265625 278.613281 C 94.632812 278.746094 95.046875 278.820312 95.507812 278.832031 C 93.902344 279.03125 92.203125 279.316406 90.476562 279.609375 C 91.742188 279.296875 93.003906 278.960938 94.265625 278.613281 Z M 117.695312 277.484375 C 116.488281 277.609375 115.28125 277.722656 114.066406 277.824219 C 115.160156 276.929688 116.316406 276.605469 117.695312 277.484375 Z M 133.6875 273.371094 C 135.367188 272.226562 137.289062 269.003906 139.367188 269.550781 C 140.535156 271.035156 141.628906 272.296875 142.675781 273.355469 C 139.132812 273.816406 135.609375 274.34375 132.097656 274.957031 C 132.636719 274.445312 133.164062 273.914062 133.6875 273.371094 Z M 161.695312 269.074219 C 162.28125 269.785156 162.859375 270.527344 163.449219 271.261719 C 162.109375 271.410156 160.765625 271.546875 159.425781 271.679688 C 160.152344 270.886719 160.90625 270.019531 161.695312 269.074219 Z M 180.660156 265.164062 C 181.378906 266.09375 181.898438 267.246094 182.488281 268.335938 C 181.3125 268.59375 180.132812 268.824219 178.953125 269.046875 C 179.621094 267.6875 180.179688 266.332031 180.660156 265.164062 Z M 194.785156 262.65625 C 195.125 263.640625 195.503906 264.449219 195.90625 265.105469 C 194.867188 265.375 193.832031 265.644531 192.792969 265.90625 C 193.515625 264.769531 194.167969 263.625 194.785156 262.65625 Z M 210.011719 257.960938 C 210.390625 259.035156 210.804688 259.988281 211.242188 260.84375 C 209.804688 261.261719 208.367188 261.675781 206.925781 262.085938 C 208.117188 260.648438 209.179688 259.160156 210.011719 257.960938 Z M 302.171875 236.5 C 300.882812 236.996094 299.589844 237.472656 298.289062 237.933594 C 298.917969 236.398438 299.402344 234.882812 299.71875 233.527344 C 300.5625 234.796875 301.378906 235.773438 302.171875 236.5 Z M 314.09375 231.421875 C 313.597656 231.652344 313.101562 231.882812 312.605469 232.109375 C 312.953125 231.484375 313.296875 230.832031 313.628906 230.15625 C 313.742188 230.675781 313.902344 231.09375 314.09375 231.421875 Z M 308.324219 225.410156 C 307.648438 223.839844 306.945312 222.578125 306.21875 221.582031 C 307.820312 221.617188 309.429688 221.683594 311.039062 221.761719 C 309.957031 223.019531 309.011719 224.433594 308.324219 225.410156 Z M 290.59375 229.675781 C 290.039062 228.527344 289.457031 227.582031 288.855469 226.816406 C 290.269531 225.183594 291.894531 223.730469 294.804688 222.761719 C 293.199219 224.734375 291.753906 227.195312 290.59375 229.675781 Z M 252.839844 242.25 C 251.566406 240.066406 251.316406 237.402344 250.183594 235.160156 C 252.101562 235.542969 254.027344 235.984375 256.003906 236.382812 C 254.78125 238.246094 253.703125 240.285156 252.839844 242.25 Z M 166.152344 248.710938 C 168.566406 247.421875 170.878906 245.898438 173.242188 244.503906 C 175.9375 243.542969 178.605469 243.25 181.253906 243.378906 C 176.21875 245.152344 171.191406 246.957031 166.152344 248.710938 Z M 350.980469 270.910156 C 341.359375 282.597656 325.972656 285.839844 312.875 292.039062 C 297.6875 296.835938 283.039062 303.074219 267.910156 308.007812 C 246.96875 313.320312 225.273438 314.789062 204.4375 320.644531 C 183.6875 326.148438 163.285156 335.421875 141.296875 333.039062 C 122.71875 329.816406 103.15625 330.265625 85.835938 322.058594 C 77.050781 317.300781 65.707031 307.785156 64.296875 297.402344 C 63.953125 295.335938 64.664062 293.496094 65.605469 291.710938 C 67.507812 294.066406 70.453125 295.660156 74.53125 295.921875 C 82.371094 296.203125 90.050781 294.433594 97.800781 293.621094 C 102.777344 293.523438 107.691406 292.738281 112.632812 292.230469 C 117.042969 291.925781 121.386719 291.066406 125.652344 289.917969 C 134.3125 287.875 143.285156 287.621094 151.992188 285.789062 C 166.277344 282.625 180.4375 278.785156 194.75 275.769531 C 207.746094 273.9375 220.800781 272.710938 233.785156 270.765625 C 248.152344 267.617188 262.527344 263.972656 276.433594 259.125 C 283.257812 256.375 290.308594 254.226562 297.316406 251.996094 C 302.578125 250.460938 308.109375 249.828125 313.167969 247.636719 C 322.175781 244.898438 331.042969 241.671875 336.121094 235.875 C 340.425781 237.292969 344.632812 239.046875 348.265625 241.78125 C 356.910156 248.945312 359.144531 262.527344 350.980469 270.910156 Z M 354.992188 178.402344 C 350.035156 178.199219 344.503906 179.007812 342.054688 183.925781 C 338.460938 189.703125 339.640625 196.542969 341.492188 202.675781 C 329.285156 207.191406 315.914062 205.226562 303.25 207.292969 C 291.066406 209.214844 288.511719 212.628906 282.242188 222.53125 C 280.382812 224.730469 277.625 225.667969 274.972656 226.53125 C 269.683594 228.933594 263.785156 229.171875 258.308594 227.226562 C 247.242188 222.96875 234.617188 220.53125 223.726562 226.613281 C 219.824219 228.699219 216.273438 232.496094 211.441406 231.40625 C 202.484375 228.582031 193.730469 223.929688 184.03125 224.988281 C 176.332031 225.117188 170.242188 229.820312 164.691406 234.621094 C 157.34375 238.769531 147.972656 240.703125 140.195312 236.597656 C 130.664062 232.046875 124 228.792969 113.222656 232.417969 C 107.816406 234.082031 104.378906 239.03125 99.457031 241.554688 C 92.570312 245.488281 87.253906 244.050781 80.867188 239.960938 C 67.550781 229.433594 51.210938 239.496094 37.4375 243.789062 C 31.558594 244.839844 24.953125 248.09375 19.144531 245.542969 C 22.707031 239.03125 29.714844 235.601562 34.632812 230.304688 C 38.375 226 40.660156 217.335938 34.820312 213.820312 C 32.914062 212.851562 30.90625 212.164062 28.886719 211.460938 C 31.949219 210.222656 35.324219 209.378906 38.640625 209.617188 C 40.773438 209.984375 42.9375 211.550781 45.109375 210.6875 C 45.710938 210.390625 46.25 210.011719 46.742188 209.578125 C 47.796875 213.558594 49.449219 217.425781 52.542969 220.199219 C 58.839844 224.851562 66.527344 227.535156 74.160156 229.082031 C 88.835938 230.695312 103.734375 231.101562 118.484375 230.351562 C 131.171875 229.535156 143.695312 227.191406 156.261719 225.382812 C 170.507812 223.222656 184.882812 222.34375 199.246094 221.40625 C 221.9375 220.535156 243.894531 214.234375 265.441406 207.5 C 279.03125 203.765625 292.992188 201.246094 306.242188 196.34375 C 315.722656 192.457031 324.589844 187.074219 332.578125 180.675781 C 338.328125 175.308594 340.394531 166.191406 337.859375 158.789062 C 337.230469 157.144531 335.035156 152.898438 332.761719 150.492188 C 333.785156 150.308594 334.78125 150.171875 335.683594 150.257812 C 342.386719 149.933594 348.894531 148.089844 355.632812 148.378906 C 352.441406 149.839844 349.636719 152.40625 349.386719 156.105469 C 348.578125 162.871094 363.769531 167.386719 366.257812 174.613281 C 363.804688 177.683594 358.65625 177.648438 354.992188 178.402344 Z M 119.011719 93.691406 C 122.726562 89.835938 125.351562 84.160156 130.371094 81.925781 C 136.472656 81.558594 136.683594 90.941406 134.058594 94.6875 C 132.097656 96.617188 130.019531 98.4375 128.535156 100.882812 C 126.394531 102.984375 125.039062 107.023438 121.703125 107.230469 C 116.273438 105.925781 116.453125 97.535156 119.011719 93.691406 Z M 165.558594 67.144531 C 188.632812 71.011719 179.34375 92.277344 172.921875 86.800781 C 170.453125 84.1875 166.929688 83.277344 163.636719 82.113281 C 154.90625 83.324219 156.605469 64.25 165.558594 67.144531 Z M 195.554688 96.902344 C 191.6875 92.707031 193.617188 86.34375 195.972656 81.859375 C 197.71875 79.1875 198.476562 73.832031 202.78125 74.6875 C 208.960938 78.292969 205.558594 86.980469 202.765625 91.851562 C 202.027344 94.96875 199.164062 100.019531 195.554688 96.902344 Z M 231.054688 88.773438 C 225.558594 83.066406 235.46875 65.078125 240.53125 75.527344 C 241.796875 79.097656 241.382812 84.039062 238.199219 86.460938 C 236.933594 89.296875 233.488281 92.21875 231.054688 88.773438 Z M 147.890625 106.554688 C 147.796875 104.691406 148.117188 102.730469 148.96875 101.058594 C 149.550781 99.917969 150.605469 98.480469 151.988281 98.289062 C 155.363281 97.816406 156.679688 101.960938 156.8125 104.609375 C 156.90625 106.472656 156.585938 108.433594 155.734375 110.105469 C 155.152344 111.242188 154.097656 112.679688 152.710938 112.875 C 149.335938 113.34375 148.023438 109.199219 147.890625 106.554688 Z M 245.785156 91.027344 C 245.695312 89.167969 246.011719 87.210938 246.863281 85.539062 C 247.441406 84.402344 248.496094 82.964844 249.878906 82.773438 C 253.25 82.300781 254.5625 86.441406 254.695312 89.082031 C 254.789062 90.945312 254.472656 92.902344 253.617188 94.574219 C 253.039062 95.710938 251.984375 97.148438 250.601562 97.339844 C 247.230469 97.808594 245.917969 93.671875 245.785156 91.027344 Z M 245.785156 91.027344 " fill-opacity="1" fill-rule="nonzero"/></g></g></g></svg>